<?xml version="1.0" encoding="UTF-8"?>
<!DOCTYPE svg PUBLIC "-//W3C//DTD SVG 1.1//EN" "http://www.w3.org/Graphics/SVG/1.1/DTD/svg11.dtd">
<!-- Creator: CorelDRAW -->
<svg xmlns="http://www.w3.org/2000/svg" xml:space="preserve" width="8.5in" height="11in" version="1.1" style="shape-rendering:geometricPrecision; text-rendering:geometricPrecision; image-rendering:optimizeQuality; fill-rule:evenodd; clip-rule:evenodd"
viewBox="0 0 8500 11000"
 xmlns:xlink="http://www.w3.org/1999/xlink"
 xmlns:xodm="http://www.corel.com/coreldraw/odm/2003">
 <defs>
  <style type="text/css">
   <![CDATA[
    .fil0 {fill:black}
   ]]>
  </style>
 </defs>
 <g id="Layer_x0020_1">
  <metadata id="CorelCorpID_0Corel-Layer"/>
  <g id="_1384364174224">
   <path class="fil0" d="M2736.67 5676.67c0,39.81 -6.01,177.57 5.14,211.53 2.17,6.61 17.11,33.93 20.96,39.04 6.65,8.82 21.64,22.72 31.11,28.89 31.63,20.63 58.71,22.45 94.4,27.96l638.67 -1.03c12.43,-0.1 23.05,-2.57 23.05,10.29l0 206.67c0,7.68 -2.32,10 -10,10l-1090 0c-17.96,0 -10,-52.9 -10,-66.67 0,-169.98 -2.69,-340.16 0.12,-510.12 0.24,-14.84 3.94,-29.88 -10.12,-29.88 -46.58,0 -171.38,-7.76 -209.47,10.53 -17.12,8.22 -22.91,13.41 -36.37,26.96 -11.68,11.76 -20.61,19.5 -27.98,35.35 -7.4,15.91 -12.84,32.24 -12.84,50.49l0 483.33 -280 0 0 -483.33c0,-19.78 -5.94,-32.72 -12.33,-47.67 -17.7,-41.39 -63.4,-75.67 -114.33,-75.67l-160 0c-17.96,0 -10,52.9 -10,66.67 0,169.98 -2.69,340.16 0.12,510.12 0.24,14.84 3.94,29.88 -10.12,29.88l-216.67 0c-16.81,0 -6.67,-12.74 -6.67,-26.67l0 -566.67c0,-7.8 -5.53,-13.33 -13.33,-13.33l-163.33 0c-57.48,0 -91.94,41.19 -115.62,84.38 -4.11,7.5 -7.71,12.72 -7.71,22.29l0 696.67c0,3.99 15.95,32.09 19.26,37.41 23.09,37.17 62.84,62.59 107.41,62.59l3776.67 0c35.76,0 64.7,-15.14 84.22,-32.45 16.69,-14.8 42.45,-53.44 42.45,-77.55l-3.12 -676.88c-0.23,-41.08 -35.05,-79.2 -67.78,-98.89 -14.28,-8.58 -31.52,-14.23 -52.44,-14.23l-170 0c0,84.8 -3.33,158.41 -3.33,243.33l0 360 -273.33 0c-17.96,0 -10,-52.9 -10,-66.67l0.07 -460.08c0.04,-14.71 -2.8,-27.09 -2.32,-35.85 0.48,-8.7 2.25,-22.57 2.25,-37.4 -21.42,-4.99 -159.28,-6.81 -194,-2.49l-18.13 6.8c-14.57,6.48 -24.93,11.18 -37.06,19.83 -10.59,7.54 -20.96,18.94 -27.4,29.27 -19.61,31.44 -20.13,56.62 -20.08,96.59l0 400c0.01,15.57 6.28,50 -10,50l-323.33 0c-15.35,0 -6.67,-9.57 -6.67,-20 0,-59.26 4.96,-367.8 -2.26,-401.07l-7.62 -22.38c-13.51,-32.62 -38.05,-59.17 -71.67,-71.67 -59.39,-22.09 -176.7,-11.55 -251.79,-11.55 -154.44,0 -308.89,0 -463.33,0 2.23,-8.37 57.89,-68.88 80.44,-122.9 0.31,-0.74 0.65,-1.63 0.96,-2.37 0.4,-0.97 1.46,-3.83 1.88,-4.79l8.07 -15.26c1.91,-4.06 1.19,-2.91 2.8,-7.2l14.26 -35.74c12.15,-36.1 29.91,-100.91 27.66,-137.43 -0.5,-8.13 -0.58,-13.08 -2.91,-24.34 -4.82,-23.28 -1.83,-3.33 3.51,-23.31 -5.64,-8.42 -6.58,-5.25 -8.99,-14.34 -2.54,-9.58 0.05,-12.64 -3.3,-23.37 -3.71,-11.86 -11.06,-24.98 -21.04,-32.29 -8.48,2.26 -10.48,3.64 -15.81,10.86 -10.87,14.74 -18.81,34.17 -33.27,46.74l-223.34 149.99c-30.95,23.09 -58.62,46.86 -85.11,74.89 -15.35,16.24 -27.55,35.11 -38.85,54.48 -17.41,29.82 -20.28,62.89 -20.28,99.72z"/>
   <path class="fil0" d="M6023.33 6036.67c0.32,14.49 4.2,16.99 10.92,25.74 7.95,10.35 39.92,60.2 42.41,70.92l-86.82 56.51c-13.35,7.97 -76.56,52.38 -89.84,53.49 -2.57,-9.63 -6.47,-13.24 -12,-21.33 -10.24,-15.01 -33.23,-56.95 -44.67,-65.33 -16.34,4.36 -28.27,19.31 -43.33,23.33 -4.58,-6.84 -9.04,-12.64 -13.83,-19.5 -9.34,-13.39 -35.13,-51.25 -36.17,-63.83 21.69,-5.8 238.34,-158.29 260,-163.33l50 76.67c-5.55,8.29 -25.76,23.76 -36.67,26.67zm543.33 -1276.67c-21.19,0 -48.22,-2.72 -63.88,-9.46 -38.26,-16.46 -58.32,-28.49 -80.59,-69.41 -19.57,-35.96 -17.74,-72.59 -10.31,-109.24 2.63,-12.98 2.65,-18.38 6.09,-30.57 27.2,-96.3 99.02,-127.96 160.52,-169.48 10.21,-6.89 10.93,-7.78 22.55,-14.12 41.77,-22.78 64.66,-55.91 82.29,-67.71 3.2,6.67 4,13.56 6.29,20.38 3.46,10.35 4.57,10.32 7.8,22.2 1.5,5.54 3.79,16.11 5.02,21.65l13.21 73.46c6.3,43.12 3.59,40.46 3.98,79.36 0.2,21.06 0.76,23.02 56.94,23.01 34.53,-0 80.87,0.77 103.43,-10.06 -2.15,25.86 -33.65,71.59 -47.11,89.56 -6.27,8.37 -8.63,10.33 -15.2,18.14 -26.31,31.3 -56.19,60.1 -92.07,81.26l-45.36 24.64c-31.09,15.66 -76.81,26.4 -113.6,26.4zm-756.67 -240c26.97,12.94 106.6,10.82 140.78,7.44 36.02,-3.56 16.93,4.92 25.59,-101.07 2.61,-32.04 18.34,-113.55 33.63,-136.37 11.22,8.22 13.76,23.35 78.04,65.3 119.72,78.12 195.29,111.28 195.29,274.71 0,12.73 -1.16,18 -5.1,28.23l-3.87 9.46c-8.55,22.95 -16.53,38.86 -36.81,56.53 -25.59,22.29 -72.17,35.79 -107.55,35.79 -135.62,0 -254.39,-100.81 -310.08,-213.25 -4.95,-9.99 -5.89,-17.73 -9.92,-26.75zm543.33 -23.33c-51.93,0 -125.31,-93.18 -163.33,-103.33 0.68,-30.56 86.45,-155 112.83,-190.51 10.31,-13.89 32.96,-52.21 43.84,-59.49 10.23,7.5 3.39,2.38 10.28,13.06l31.04 45.63c30.39,45.76 104.49,141.34 115.35,187.98l-71.41 55.26c-7.16,5.12 -11,7.04 -17.58,12.41 -8.1,6.61 -9.98,8.1 -19,14.33 -7.2,4.98 -34.64,24.66 -42,24.66zm-1036.67 366.67c6.91,25.87 34.33,53.35 46.67,76.67 -21.67,32.36 -39.41,3.77 27.13,99.54 3.97,5.72 6.28,10.35 10.18,16.48 7.35,11.54 13.52,20.22 21.37,31.96 7.67,11.46 11.63,19.25 19.3,30.7 7.92,11.83 13.68,20.46 21.35,31.98 6.86,10.28 33.07,59.33 44,59.33 11.31,0 47.86,-33.33 60,-33.33 12.87,0 25.47,31.6 31.99,41.34l434.67 665.33c-54.36,36.4 -108.95,74.31 -165.6,107.73 -15.84,9.35 -148.61,101.15 -167.73,105.61 -45.69,-68.23 -93.06,-137.19 -135.64,-207.7l-219.69 -336.98c-10.18,-15.25 -17.36,-27.83 -27.32,-42.67l-40.85 -62.88c-2.89,-5.03 -13.17,-23.35 -13.17,-3.11l0 260c0,12.69 46.87,13.03 83.81,26.19 24.72,8.81 48.31,27.44 65.36,44.64 8.83,8.91 18.72,17.23 26.19,27.15 33.9,45.04 44.64,92 44.64,152.02 0,84.75 -64.44,157.64 -136.52,190.15 -47.79,21.56 -55.73,-0.78 -68.78,64.56 -9.37,46.97 -8.04,96.74 -8.04,145.29 0,72.59 31.56,129.15 69.48,180.52l37.98 48.69c123.05,132.91 334.35,166.95 489.1,77.35 37.65,-21.8 60.83,-45.62 90.94,-75.72 15.18,-15.19 27.08,-25.63 40.15,-43.18l35.68 -50.99c21.11,0 42.22,0 63.33,0 26.06,0 56.67,8.16 56.67,-13.33 0,-7.68 -2.32,-10 -10,-10l-460 0 0 -116.67c0,-17.54 40.92,-10 53.33,-10l397.05 0.39c28.92,-0.21 19.67,-13.54 19.62,-47.05l-0 -1056.67c0,-72.88 -7.52,-201.47 27.33,-269.33 24.23,-47.17 54.93,-79.56 106.68,-93.31 43.41,-11.54 33.68,-7.35 82.65,-7.35 1.97,0 54.23,15.5 74.77,28.56 45.41,28.87 61.53,76.76 74.67,125.69 4.8,17.89 8.24,80.1 13.3,89.68 3.95,7.47 17.82,18.07 23.93,26.07 18.59,24.36 42.38,43.76 62.35,67.65l36.67 40c12.84,15.36 63.63,79.02 77.65,79.02l483.33 0c14.81,0 108.46,-113.75 129.15,-134.19 10.62,-10.49 16.13,-15.5 25.59,-27.74 21.13,-27.37 48.59,-38.14 48.59,-71.41 0,-20.27 1.81,-42.61 -0.91,-62.43l-5.65 -94.35c-0.43,-20.06 -3.24,-14.79 -5.8,-27.53 -5.67,-28.15 -3.93,-60.87 -11.04,-85.89 -2.32,-8.17 -1.24,1.98 -2.35,-12.22l-16.48 -78.68c-0.81,-2.6 -2.74,-11.41 -3.2,-13.46 -12.61,-55.59 -31.99,-124.24 -55.66,-174.34 -15.17,-32.11 -27.7,-58.77 -43.31,-90.02l-62.8 -100.54c-4.05,-7.12 -7.95,-11.31 -14.2,-19.13 -10.33,-12.94 -21.05,-23.38 -30.99,-35.68l-29.33 -34c-16.25,-16.42 -31.76,-36.12 -50.21,-49.79l-133.68 -96.32c-29.24,-17.02 -99.75,-52.29 -133.12,-63.55l-154.21 -42.97c-8.44,-1.3 0.7,0.75 -6.33,-0.79 -0.6,-0.13 -1.55,-0.38 -2.17,-0.54l-68.68 -10.97c-21.49,-2.75 -8.57,-4.46 -26.72,-6.62 -117.03,-13.92 -246.05,-8.32 -363.19,-0.21 -21.3,1.47 -7.32,3.12 -23.88,6.11 -9.37,1.7 -22.24,2.21 -30.01,3.33l-56.31 9.84c-0.52,0.09 -1.48,0.22 -2.01,0.33l-13.96 3.99c-57.52,14.01 -111.77,27.52 -166.66,50.24l-103.09 46.91c-8.85,5.27 -11.43,8.2 -20.79,12.54l-19.52 10.48c-25.28,17.04 -51.92,31.37 -76.01,50.65l-19.99 13.34c-24.77,17.56 -43.76,42.19 -67.2,59.46l-34.71 28.63c-13.85,13.75 -16.24,22.59 -28.2,35.14 -20.68,21.7 -42.04,42.48 -58.64,68.02l-63.73 92.94c-5.65,9.33 -5.87,13.26 -11.44,21.89 -16.49,25.59 -31.69,56.2 -42.09,84.57l-18.89 44.54c-2.75,6.66 -6.04,14.1 -7.76,19.33l-17.62 57.01c-0.13,0.52 -0.31,1.49 -0.45,2.03l-29.27 116.94c-1.77,13.61 -19.15,63.57 6.76,47.01 12.96,-8.29 5.86,-10.57 22.17,-11.93z"/>
   <path class="fil0" d="M7396.67 6940l23.33 0c0,-64.3 5.09,-390.49 -3.33,-426.67l-75.84 107.5c-9.13,10.31 -89.3,85.83 -104.16,85.83 -4.72,0 -35.18,-20.2 -42.24,-24.43l-66.13 -33.87c-20.24,-9.7 -51.06,-23.57 -71.64,-28.37 4.16,-15.58 27.43,-19.77 44.14,-32.52 35.84,-27.36 40.87,-15.46 45.86,-34.14l-255.23 -1.22c-13.26,-2.65 -30.68,-16.89 -42.52,-24.36 -9.23,-5.82 -11.28,-8.43 -18.94,-14.39 -13.04,-10.13 -62.46,-54.39 -66.63,-70.03 11.87,-5.69 11.46,0 26.67,0l446.67 0c21.98,0 26.85,-23.74 35.6,-41.07 7.26,-14.38 17.3,-42.91 17.73,-62.27l-623.33 0c-15.61,0 -7.65,14.99 -3.98,23.75 13.06,31.19 9.69,41.13 42,88.27l10.09 18.05c5.54,12.95 2.77,-1.79 22.83,25.66 13.88,18.99 25.4,28.62 43.45,43.22l80.48 56.19c29.49,17.99 58.48,32.52 91.84,44.82l91.58 28.33c46.63,16.53 147.81,66.35 184.03,96.06l23.38 16.62c8.54,6.62 16.19,12.59 23.86,19.47 0.22,0.2 4.53,4.21 5.15,4.85 1.72,1.74 3.25,3.54 4.77,5.24 17.52,19.61 33.41,28.07 65.09,64.91 10.52,12.24 20.07,19.97 30.35,36.31 2.18,3.46 1.44,2.85 3.61,6.39 1.75,2.84 3.09,4.61 4,6 4.99,7.62 5.04,5.41 7.48,15.86z"/>
   <path class="fil0" d="M6530 6056.67c13.11,-3.5 4.25,0.24 10.78,-9.22l15 -21.67c0.41,-0.57 1.02,-1.33 1.43,-1.9l2.85 -3.82c29.8,-45.59 19.85,-32.73 58.7,-74.63l22.94 -23.73c7.83,-8.52 3.99,-4.49 12.04,-11.29 9.61,-8.11 46.7,-32.92 49.59,-43.75 14.56,0.33 28.43,11.51 44.63,22.03 14.47,9.4 30.06,16.2 46.21,23.79 25.41,11.94 74.61,38.8 99.15,40.85l0 10 -64.21 35.79c-7.13,6.67 -12.38,11.52 -22.46,14.21l0 10c80.72,0 163.05,-1.62 243.55,-0.21 28.27,0.5 54.39,27.67 75.41,44.59 14.13,11.39 57.24,44.44 57.72,65.62l-480 0c-15.12,0 -24.28,33.7 -29.98,46.68 -4.26,9.69 -6.44,19.85 -10.16,30.08 -3.36,9.25 -11.28,23.24 3.47,23.24l623.33 0c0,-14.64 -0.07,-10.53 -3.18,-20.15 -1.43,-4.43 -3.7,-11.57 -5.62,-17.71 -4.34,-13.87 -9.1,-23.62 -14.98,-35.02l-25.93 -44.07c-6.61,-9.11 -6.61,-4.34 -6.96,-19.71 -16.24,-1.35 -13.2,-11.8 -48.69,-44.65 -54.47,-50.43 -123.82,-95.5 -194.25,-119.09l-150 -53.34c-4.33,-2.24 -9.41,-4.4 -13.67,-6.33l-47.39 -25.94c-10.28,-5.39 -13.8,-6.93 -23.76,-12.91 -17.39,-10.42 -27.38,-19 -43.15,-30.19 -11.23,-7.96 -11.19,-5.13 -21.01,-15.66 -12.91,-13.83 -9.59,-5.53 -22.39,-17.61l-105.45 -114.55 -30.26 -46.41c-10.15,21.15 -3.33,388.17 -3.33,446.67z"/>
   <path class="fil0" d="M7416.67 6060c2.28,-4.07 3.33,-3.56 3.33,-10l0 -430c0,-12.74 1.02,-1.21 -3.33,-10 -9.24,6.77 -11.21,15.37 -17.38,25.96 -27.67,47.48 -139.22,164.04 -159.29,164.04 -14.06,0 -20.08,-10.08 -43.78,-22.89 -33.97,-18.36 -81.38,-43.34 -118.11,-55.22 -11.58,-3.74 -16.98,-4.99 -18.11,-18.56 10.14,-2.71 12.55,-7.79 23.26,-13.41l46.38 -26.95c13.12,-8.85 13.06,-2.63 17.02,-19.64 -82.28,0 -164.6,0.31 -246.86,0.19 -14.75,-0.02 -14.84,1.3 -25.2,-4.8l-34.6 -25.4c-7.99,-5.81 -10.29,-10.01 -17.74,-15.59 -6.89,-5.16 -3.01,-1.67 -8.28,-5.06l-46.17 -47.16c-6.52,-8.46 -5.3,-2.72 -7.83,-12.17l493.33 0c7.9,-11.8 9.21,-16.76 15.52,-31.14 8.37,-19.06 15.3,-30.77 19.52,-51.33 2.46,-11.96 4.93,-9.76 -5.44,-13.49l-626.27 -0.71c2.55,10.94 6.59,20.94 9.26,30.74l26.94 59.72c33.3,47.41 51.88,78.43 101.41,115.26l105.69 67.65c4.2,2.13 9.15,4.85 13.41,6.59 6.12,2.5 11,3.14 17.46,5.88l45.23 18.1c8,3.48 8.73,3.74 17.54,5.8l110.61 39.39c8.7,3.74 5.98,3.82 14.92,8.41 10.61,5.45 18.75,8.39 29.8,13.54l80.51 49.49c9.2,5.98 15.61,12.03 24.38,18.96l14.15 12.52c13.66,12.85 11.43,7.78 21.13,15.54l75.03 78.3c8,7.96 5.44,9.76 18.17,25.17 7.55,9.14 12.08,15.51 17.98,25.35 2.99,4.99 3.93,6.35 7.18,12.82 6.76,13.44 -2.57,5.45 9.23,14.1z"/>
   <path class="fil0" d="M2313.33 5310c0,34.13 9.79,62.71 27.13,92.87 6.83,11.89 35.7,40.62 50.89,49.11 13.04,7.29 40.54,21.35 48.65,21.35l63.33 0c7.51,0 26.04,-10.69 35.11,-14.89 49.16,-22.76 88.22,-82.48 88.22,-131.78 0,-42.94 -14.58,-88.98 -45.79,-117.54 -35.07,-32.09 -70.07,-45.79 -117.54,-45.79 -48.13,0 -108.9,40.33 -132.02,87.98l-17.98 58.69z"/>
   <path class="fil0" d="M1976.66 5286.67l0 66.67c0,7.51 1.92,5.89 8.25,21.75 6.95,17.43 24.53,44.32 37.56,55.77 52.83,46.41 77.5,42.48 137.52,42.48 14.52,0 -1.49,0.07 11.85,-4.81 4.62,-1.69 8.16,-2.43 12.68,-3.98 17.55,-6.02 50.23,-28.91 61.23,-42.11 78.15,-93.81 27.42,-224.48 -70.23,-251.3 -39.39,-10.82 -56.57,-12.74 -100.89,3.51 -1.78,0.65 -5.11,1.82 -7.33,2.67 -36.33,13.91 -67.56,49.17 -81.54,85.13 -5.65,14.54 -9.11,17.12 -9.11,24.22z"/>
   <path class="fil0" d="M4323.33 6770c0,43.33 -4.86,60.34 17.15,99.52 24.31,43.28 49.96,55.09 87.56,72.44 0.7,0.32 1.55,0.76 2.24,1.09 25.41,12.22 23.62,6.96 76.38,6.96 9.18,0 4.92,-2.34 11.03,-5.64l38.43 -18.24c34.78,-22.46 49.83,-42.3 65.46,-81.21 5.33,-13.26 11.15,-46.5 7.87,-60.69 -8.72,-37.67 -1.93,-54.95 -46.92,-100.1 -20.36,-20.44 -42.36,-33.13 -69.83,-40.17 -46.54,-11.91 -34.86,-8.72 -72.41,-0.35 -12,2.68 -14.24,2.43 -25.42,7.91 -28.86,14.13 -59.7,37.86 -73.57,66.43 -7.28,14.98 -17.96,35.52 -17.96,52.04z"/>
   <path class="fil0" d="M1420 5473.33c43.05,0 49.3,4.4 79.71,-6.96 11.38,-4.25 12.02,-4.84 22.67,-10.67 26.06,-14.27 50.1,-36.07 63.75,-62.92 21.47,-42.22 17.21,-59.5 17.21,-102.79l-19.47 -47.2c-15.98,-30.91 -45.37,-55.36 -78.48,-68.18 -25.49,-9.87 -38.88,-11.29 -65.38,-11.29l-40.62 9.38c-37.83,13.52 -69.37,42.94 -88,78.67 -4.19,8.02 -9.33,18.1 -10.88,25.78 -7.94,39.2 -7.93,39.04 -1.11,76.78 2.45,13.57 0.61,6.23 4.4,15.59 21.3,52.63 47.97,78.4 101.89,98.11 7.09,2.59 0.39,0.09 7.21,2.79 8.09,3.2 -7.72,2.89 7.12,2.89z"/>
   <path class="fil0" d="M3976.67 6783.33c0,26.3 2.82,48.15 15.99,74.01 15.81,31.05 36.41,56.69 67.28,72.72 48.2,25.03 49.3,19.94 100.06,19.94 12.3,0 9.31,-2.25 21.96,-8.05 0.71,-0.33 1.59,-0.7 2.32,-1.01l14.18 -5.82c19.45,-9.46 39.21,-24.28 52.69,-40.65 16.49,-20.02 23.29,-35.15 30.67,-59.33 9.8,-32.08 7.68,-48.96 0.36,-77.28 -4.85,-18.74 -0.03,-12.82 -8.53,-28.18 -14.85,-26.82 -24.52,-43.71 -49.64,-60.36l-77.33 -32.67c-26.86,0 -17.33,-1.36 -33.33,3.34 -32.87,9.66 -52.2,10.31 -85.87,44.13 -13.08,13.13 -23.03,23.7 -32.01,41.32l-18.79 57.88z"/>
   <path class="fil0" d="M4750 5296.67c0,53.98 -4.52,40.5 7.98,72.02 21.98,55.37 43.56,73.81 97.07,96.44 17.55,7.42 8.95,5.54 39.02,7.17 15.93,0.86 2.95,-2.29 19.26,-2.29 12.3,0 7.51,2.55 13.83,2.16l38.57 -16.43c36.71,-21.74 59.66,-39.93 76.91,-86.42 1.03,-2.78 1.94,-5.21 2.72,-7.28 20.33,-54.04 -4.22,-124.41 -49.2,-158.19l-23.81 -19.52 -52.35 -14.31 -60 0c-17.09,0 5.56,-2.13 -15.36,7.97 -0.7,0.34 -1.58,0.72 -2.3,1.04l-27.5 15.83c-7.12,4.26 -2.94,0.55 -10.51,6.16 -4.56,3.39 -10.98,10.29 -15.27,14.73l-24.7 35.3c-5.25,10.28 -14.36,32.33 -14.36,45.64z"/>
   <path class="fil0" d="M6306.67 4433.33c0,9.05 6.36,24.8 9.98,30.02 20.38,29.32 66.69,18.76 66.69,-33.35 0,-25.86 -35.21,-57.66 -63.71,-27.04 -4.3,4.62 -12.96,22.52 -12.96,30.37z"/>
  </g>
 </g>
</svg>
